<svg width="32" height="33" viewBox="0 0 32 33" fill="none" xmlns="http://www.w3.org/2000/svg">
<g id="Group 427318831">
<g id="Rectangle 34624063">
<rect y="0.280029" width="32" height="32" rx="8" fill="white" fill-opacity="0.2"/>
<rect x="0.5" y="0.780029" width="31" height="31" rx="7.5" stroke="white" stroke-opacity="0.4"/>
</g>
<path id="Vector" d="M14.2557 17.7356C13.0473 18.0814 11.8956 18.2638 10.802 18.2957C9.05983 18.3462 7.55215 18.0173 6.28919 17.4266C5.83677 17.2152 5.44524 16.9827 5.11446 16.7448C4.90228 16.5925 4.74998 16.4636 4.6564 16.3727C4.55046 16.2697 4.46585 16.1468 4.40739 16.0111C4.34893 15.8754 4.31778 15.7295 4.31571 15.5818C4.31365 15.4341 4.3407 15.2874 4.39534 15.1501C4.44997 15.0128 4.53111 14.8876 4.63413 14.7817C5.06731 14.3361 5.7795 14.3262 6.24956 14.7801C6.29613 14.8194 6.35572 14.866 6.4279 14.9179C6.64832 15.0765 6.91995 15.2376 7.24234 15.3884C8.19375 15.8336 9.35402 16.0867 10.7363 16.0464C12.0878 16.007 13.5774 15.6852 15.2099 15.0293C15.8123 13.4711 16.1099 12.043 16.1478 10.7401C16.1886 9.34151 15.932 8.16562 15.4803 7.19989C15.3266 6.87143 15.1624 6.59445 15.0003 6.36896C14.9466 6.29447 14.8985 6.233 14.8319 6.15432C14.6432 5.95977 14.5394 5.69826 14.5434 5.42723C14.5474 5.15621 14.6588 4.89785 14.8531 4.70891C15.0475 4.51996 15.3089 4.4159 15.5799 4.41958C15.8509 4.42325 16.1094 4.53436 16.2985 4.72851C16.386 4.81861 16.5117 4.96715 16.661 5.17485C16.8955 5.50071 17.1243 5.88689 17.3333 6.33338C17.9173 7.58216 18.243 9.07393 18.1925 10.7999C18.1614 11.868 17.9857 12.9925 17.6523 14.1729C18.8907 13.8371 20.0769 13.6729 21.2079 13.6657C22.9163 13.6547 24.41 13.9982 25.676 14.5824C26.128 14.7908 26.5211 15.0173 26.8553 15.2474C27.0684 15.3942 27.2218 15.517 27.3154 15.6025C27.5359 15.8035 27.6675 16.0839 27.6813 16.3819C27.6951 16.6799 27.5899 16.9712 27.3889 17.1917C26.9702 17.651 26.2587 17.6838 25.769 17.2403C25.7188 17.2003 25.6553 17.153 25.5791 17.1005C25.3477 16.9411 25.0655 16.7787 24.7333 16.6252C23.7588 16.1755 22.59 15.9069 21.2224 15.9156C19.8363 15.9247 18.324 16.2215 16.6826 16.8604C16.0953 18.4311 15.8212 19.8843 15.8127 21.2226C15.8037 22.6056 16.0758 23.7891 16.5316 24.7769C16.6875 25.1144 16.8528 25.4018 17.0154 25.6379C17.0701 25.7173 17.128 25.7945 17.1889 25.8693C17.3717 26.0698 17.4673 26.3346 17.4548 26.6056C17.4422 26.8766 17.3226 27.1315 17.1221 27.3142C16.9216 27.4969 16.6568 27.5926 16.3858 27.58C16.1148 27.5675 15.8599 27.4478 15.6772 27.2474C15.5949 27.157 15.4748 27.0071 15.3309 26.7981C15.104 26.4685 14.8805 26.0805 14.6744 25.634C14.0962 24.3811 13.7564 22.9022 13.7673 21.2093C13.7744 20.1041 13.9325 18.9454 14.2557 17.7356ZM13.9743 9.05745C14.1469 8.88483 14.2438 8.65071 14.2438 8.40659C14.2438 8.16247 14.1469 7.92834 13.9743 7.75573C13.8016 7.58311 13.5675 7.48613 13.3234 7.48613C13.0793 7.48613 12.8452 7.58311 12.6725 7.75573L7.89956 12.5287C7.72694 12.7013 7.62997 12.9354 7.62997 13.1796C7.62997 13.4237 7.72694 13.6578 7.89956 13.8304C8.07218 14.003 8.3063 14.1 8.55042 14.1C8.79454 14.1 9.02866 14.003 9.20128 13.8304L13.9743 9.05745ZM14.7697 12.3117C14.9424 12.1391 15.0393 11.905 15.0393 11.6609C15.0393 11.4168 14.9424 11.1826 14.7697 11.01C14.5971 10.8374 14.363 10.7404 14.1189 10.7404C13.8748 10.7404 13.6406 10.8374 13.468 11.01L11.0815 13.3965C10.9089 13.5691 10.8119 13.8032 10.8119 14.0474C10.8119 14.2915 10.9089 14.5256 11.0815 14.6982C11.2542 14.8708 11.4883 14.9678 11.7324 14.9678C11.9765 14.9678 12.2106 14.8708 12.3833 14.6982L14.7697 12.3117ZM24.0987 19.1819C24.2714 19.0093 24.3683 18.7752 24.3683 18.5311C24.3683 18.2869 24.2714 18.0528 24.0987 17.8802C23.9261 17.7076 23.692 17.6106 23.4479 17.6106C23.2038 17.6106 22.9696 17.7076 22.797 17.8802L18.024 22.6532C17.8514 22.8258 17.7544 23.0599 17.7544 23.304C17.7544 23.5482 17.8514 23.7823 18.024 23.9549C18.1967 24.1275 18.4308 24.2245 18.6749 24.2245C18.919 24.2245 19.1531 24.1275 19.3258 23.9549L24.0987 19.1819ZM20.8444 18.3864C21.0171 18.2138 21.114 17.9797 21.114 17.7356C21.114 17.4915 21.0171 17.2573 20.8444 17.0847C20.6718 16.9121 20.4377 16.8151 20.1936 16.8151C19.9495 16.8151 19.7153 16.9121 19.5427 17.0847L17.1562 19.4712C16.9836 19.6438 16.8866 19.8779 16.8866 20.1221C16.8866 20.3662 16.9836 20.6003 17.1562 20.7729C17.3289 20.9455 17.563 21.0425 17.8071 21.0425C18.0512 21.0425 18.2853 20.9455 18.458 20.7729L20.8444 18.3864Z" fill="white"/>
</g>
</svg>
