<svg width="32" height="32" viewBox="0 0 32 32" fill="none" xmlns="http://www.w3.org/2000/svg">
<g id="Group 427318830">
<g id="Rectangle 34624063">
<rect width="32" height="32" rx="8" fill="white" fill-opacity="0.2"/>
<rect x="0.5" y="0.5" width="31" height="31" rx="7.5" stroke="white" stroke-opacity="0.4"/>
</g>
<path id="Vector" d="M19.6532 16.1345C19.6532 15.9961 19.6301 15.8632 19.6135 15.7303V11.4417C20.1611 11.3217 20.5702 10.8392 20.5702 10.2595C20.5702 9.58864 20.024 9.047 19.351 9.047H15.9369C15.8045 8.3601 15.2256 7.8313 14.4944 7.8313C13.7647 7.8313 13.1844 8.36012 13.0519 9.047H12.6442C11.9697 9.047 11.4235 9.58864 11.4235 10.2595C11.4235 10.8392 11.8351 11.3217 12.3812 11.4417V15.7303C12.3637 15.8619 12.3392 15.9947 12.3392 16.1345L7.26545 24.3997C6.99559 24.8396 6.92549 25.3743 7.08279 25.8651C7.47951 27.1032 8.64612 28 10.0249 28H21.9698C23.3689 28 24.5508 27.0757 24.93 25.8078C25.0698 25.34 24.9969 24.835 24.7413 24.418L19.6532 16.1345ZM12.1976 23.2197C11.4886 23.2197 10.9134 22.6483 10.9134 21.9449C10.9134 21.2406 11.4886 20.6692 12.1976 20.6692C12.9057 20.6692 13.481 21.2406 13.481 21.9449C13.4819 22.6483 12.9067 23.2197 12.1976 23.2197ZM15.901 25.5375C15.2745 25.5375 14.7676 25.0329 14.7676 24.4107C14.7676 23.7893 15.2754 23.2848 15.901 23.2848C16.5265 23.2848 17.0344 23.7893 17.0344 24.4107C17.0344 25.0325 16.5274 25.5375 15.901 25.5375ZM16.6054 20.6958C15.5605 20.6958 14.7131 19.854 14.7131 18.817C14.7131 17.78 15.5605 16.9373 16.6054 16.9373C17.6493 16.9373 18.4967 17.7791 18.4967 18.817C18.4967 19.8549 17.6502 20.6958 16.6054 20.6958ZM17.9828 5.83387C18.5442 5.83387 19 6.28661 19 6.84427C19 7.40193 18.5442 7.85469 17.9828 7.85469C17.4214 7.85469 16.9656 7.40195 16.9656 6.84427C16.9656 6.28659 17.4214 5.83387 17.9828 5.83387H17.9828ZM15.0513 4.00002C15.5463 4.00002 15.9476 4.39821 15.9476 4.89037C15.9476 5.38252 15.5467 5.78073 15.0513 5.78073C14.5558 5.78073 14.155 5.3825 14.155 4.89037C14.155 4.39824 14.5558 4 15.0513 4L15.0513 4.00002Z" fill="white"/>
</g>
</svg>
