<svg width="32" height="32" viewBox="0 0 32 32" fill="none" xmlns="http://www.w3.org/2000/svg">
<g id="Group 427318829">
<g id="Rectangle 34624063">
<rect width="32" height="32" rx="8" fill="white" fill-opacity="0.2"/>
<rect x="0.5" y="0.5" width="31" height="31" rx="7.5" stroke="white" stroke-opacity="0.4"/>
</g>
<path id="Vector" d="M10.3323 11.5804C11.3993 11.364 12.4785 11.2131 13.5639 11.1284C14.1861 10.2363 14.8621 9.38291 15.5882 8.5731C15.2445 8.22425 14.8851 7.89259 14.5099 7.57812C13.6542 6.72995 12.55 6.17725 11.3583 6.00058C11.1329 5.99378 10.9097 6.04654 10.7113 6.15353C9.7558 6.69827 9.58568 8.76728 10.3323 11.5804ZM17.1408 8.58513C17.8649 9.40001 18.5386 10.2582 19.1583 11.1551C20.2428 11.2553 21.3203 11.4214 22.3847 11.6526C22.5182 11.1711 22.6291 10.6837 22.7172 10.1919C23.0746 8.13833 22.8212 6.64242 22.0461 6.22054C21.8443 6.10746 21.6158 6.05077 21.3845 6.05643C19.7156 6.36907 18.2129 7.26695 17.1468 8.58856L17.1408 8.58513ZM12.727 19.6167C12.2527 18.8583 11.8071 18.083 11.39 17.2908C11.1065 17.9409 10.8545 18.6034 10.6339 19.2782C11.3015 19.4139 12.0035 19.5256 12.733 19.6219L12.727 19.6167ZM22.3718 20.4012C21.3034 20.6178 20.2228 20.7687 19.1359 20.8531C18.5162 21.7469 17.8425 22.602 17.1185 23.4136C19.1806 25.4826 21.046 26.396 21.9997 25.8401C22.9535 25.2841 23.1167 23.2246 22.3778 20.4012H22.3718ZM12.7511 12.3434C12.0095 12.4293 11.3101 12.5419 10.6537 12.6759C10.8616 13.3117 11.1117 13.9785 11.3986 14.6633C11.6043 14.2749 11.8211 13.884 12.0491 13.4904C12.2771 13.0969 12.5116 12.718 12.7528 12.3537L12.7511 12.3434ZM15.5444 23.4085C14.8302 22.5904 14.1665 21.7296 13.557 20.8308C12.4762 20.7301 11.4025 20.564 10.3418 20.3333C9.58568 23.1687 9.72487 25.2309 10.6803 25.8023C11.6358 26.3736 13.4737 25.4766 15.5461 23.4179L15.5444 23.4085ZM17.6778 20.9631H16.3538C15.9018 20.9631 15.4533 20.9631 15.0074 20.9287C15.4559 21.5302 15.9018 22.0827 16.3503 22.5793C16.78 22.0895 17.2388 21.5414 17.6796 20.97L17.6778 20.9631ZM8.11211 18.5573C8.54859 18.7214 9.02718 18.8657 9.51952 18.9998C9.86726 17.9734 10.277 16.9692 10.7465 15.9925C10.2828 15.0095 9.87933 13.9992 9.53842 12.9672C6.71845 13.7233 5 14.8807 5 15.9934C5 16.8655 6.16683 17.8338 8.11469 18.565L8.11211 18.5573ZM15.022 11.021H16.3418C16.7937 11.021 17.2422 11.021 17.6847 11.0554C17.2689 10.4801 16.8205 9.92898 16.3418 9.40483C15.9121 9.90547 15.4716 10.4471 15.0203 11.0296L15.022 11.021ZM24.5903 13.4269C24.1235 13.255 23.6494 13.1055 23.1683 12.9783C22.8236 14.0061 22.417 15.0121 21.9508 15.9908C22.4167 16.9807 22.8216 17.9982 23.1631 19.0376C25.9805 18.2815 27.7015 17.1146 27.7015 16.0114C27.7015 15.1341 26.5407 14.1641 24.5929 13.4337L24.5903 13.4269ZM14.1636 19.7542C14.8751 19.8032 15.6011 19.8332 16.3366 19.8401C17.0615 19.8551 17.7868 19.8336 18.5096 19.7757C19.329 18.573 20.0615 17.3133 20.7015 16.0062C20.399 15.3747 20.0605 14.7337 19.7065 14.0773C19.3525 13.4208 18.9504 12.8194 18.5585 12.2274C17.8341 12.1772 17.1083 12.1485 16.3821 12.1415H16.2816C15.5607 12.1415 14.869 12.1715 14.2014 12.2111C13.8108 12.7873 13.425 13.4008 13.0441 14.0515C12.666 14.7019 12.3275 15.3403 12.019 15.971C12.3214 16.6025 12.66 17.2435 13.014 17.894C13.368 18.5444 13.7761 19.1828 14.1636 19.7602V19.7542ZM21.3252 17.3088C20.9054 18.1056 20.4534 18.8841 19.9694 19.6442C20.7143 19.5583 21.4215 19.4457 22.0779 19.3117C21.8545 18.6776 21.6042 18.0125 21.327 17.3166L21.3252 17.3088ZM19.9694 12.3674C20.2074 12.7455 20.4368 13.1235 20.6568 13.5154C20.8767 13.9072 21.0993 14.2998 21.3038 14.6882C21.5916 14.0171 21.8468 13.3641 22.0599 12.7008C21.3662 12.5719 20.6691 12.4634 19.9685 12.3752L19.9694 12.3674Z" fill="white"/>
</g>
</svg>
