<svg width="300" height="235" viewBox="0 0 300 235" fill="none" xmlns="http://www.w3.org/2000/svg">
<rect width="300" height="235" rx="4" fill="white"/>
<circle cx="147.5" cy="117.5" r="90.5" fill="url(#paint0_linear_959_18052)"/>
<path d="M148 131C167.882 131 184 114.882 184 95C184 75.1177 167.882 59 148 59C128.118 59 112 75.1177 112 95C112 114.882 128.118 131 148 131Z" fill="url(#paint1_linear_959_18052)"/>
<path fill-rule="evenodd" clip-rule="evenodd" d="M168.684 100H197.316C198.028 100 198.71 100.284 199.214 100.79C199.717 101.296 200 101.982 200 102.697V130.301C200 130.656 199.931 131.007 199.796 131.334C199.661 131.661 199.463 131.959 199.214 132.21C198.965 132.46 198.669 132.659 198.343 132.795C198.017 132.93 197.668 133 197.316 133H168.684C168.332 133 167.983 132.93 167.657 132.795C167.331 132.659 167.035 132.46 166.786 132.21C166.537 131.959 166.339 131.661 166.204 131.334C166.069 131.007 166 130.656 166 130.301V102.697C166 101.982 166.283 101.296 166.786 100.79C167.29 100.284 167.972 100 168.684 100V100Z" fill="#81B4FF"/>
<path fill-rule="evenodd" clip-rule="evenodd" d="M168.534 102H195.56C196.232 102 196.877 102.267 197.352 102.742C197.827 103.217 198.094 103.862 198.094 104.534V130.465C198.094 130.798 198.029 131.127 197.902 131.435C197.774 131.743 197.588 132.022 197.352 132.257C197.117 132.493 196.838 132.68 196.53 132.807C196.223 132.934 195.893 133 195.56 133H168.534C168.201 133 167.872 132.934 167.564 132.807C167.256 132.68 166.977 132.493 166.742 132.257C166.506 132.022 166.32 131.743 166.193 131.435C166.065 131.127 166 130.798 166 130.465V104.534C166 103.862 166.267 103.217 166.742 102.742C167.217 102.267 167.862 102 168.534 102V102Z" fill="white"/>
<path opacity="0.6" fill-rule="evenodd" clip-rule="evenodd" d="M189.661 129.01H190.505C190.972 129.01 191.35 128.805 191.35 128.551V106.764C191.35 106.511 190.972 106.305 190.505 106.305H189.661C189.194 106.305 188.816 106.51 188.816 106.764V128.551C188.816 128.805 189.194 129.01 189.661 129.01Z" fill="#BBD7FF"/>
<path opacity="0.6" fill-rule="evenodd" clip-rule="evenodd" d="M181.626 129.01H182.47C182.937 129.01 183.315 128.805 183.315 128.551V106.764C183.315 106.511 182.937 106.305 182.47 106.305H181.626C181.159 106.305 180.781 106.51 180.781 106.764V128.551C180.781 128.805 181.159 129.01 181.626 129.01Z" fill="#BBD7FF"/>
<path opacity="0.6" fill-rule="evenodd" clip-rule="evenodd" d="M173.587 129.01H174.431C174.898 129.01 175.276 128.805 175.276 128.551V106.764C175.276 106.511 174.898 106.305 174.431 106.305H173.587C173.12 106.305 172.742 106.51 172.742 106.764V128.551C172.742 128.805 173.12 129.01 173.587 129.01Z" fill="#BBD7FF"/>
<path d="M173.796 114.343C175.382 114.343 176.667 113.057 176.667 111.472C176.667 109.887 175.382 108.602 173.796 108.602C172.211 108.602 170.926 109.887 170.926 111.472C170.926 113.057 172.211 114.343 173.796 114.343Z" fill="#73ABFF"/>
<path d="M189.871 114.343C191.456 114.343 192.741 113.057 192.741 111.472C192.741 109.887 191.456 108.602 189.871 108.602C188.285 108.602 187 109.887 187 111.472C187 113.057 188.285 114.343 189.871 114.343Z" fill="#73ABFF"/>
<path d="M181.834 120.657C183.419 120.657 184.704 119.372 184.704 117.787C184.704 116.202 183.419 114.917 181.834 114.917C180.249 114.917 178.964 116.202 178.964 117.787C178.964 119.372 180.249 120.657 181.834 120.657Z" fill="#73ABFF"/>
<path d="M191.034 142.662C191.034 139.995 171.103 133 146.517 133C121.931 133 102 139.995 102 142.662H191.034Z" fill="url(#paint2_linear_959_18052)"/>
<path d="M92 57L87.6301 52.4889L83.7457 57L76.5838 50L71 57H83.7457H92Z" fill="#C9DFFF"/>
<path d="M166.75 96.5002L148.25 96.5002L148.25 74.9999" stroke="#EDF5FF" stroke-width="6" stroke-linecap="round"/>
<path d="M222 101L226.37 96.4889L230.254 101L237.416 94L243 101H230.254H222Z" fill="#E9F1FB"/>
<defs>
<linearGradient id="paint0_linear_959_18052" x1="147.5" y1="27" x2="147.5" y2="208" gradientUnits="userSpaceOnUse">
<stop stop-color="#C9DFFF"/>
<stop offset="0.505208" stop-color="white" stop-opacity="0"/>
</linearGradient>
<linearGradient id="paint1_linear_959_18052" x1="148" y1="59" x2="148" y2="131" gradientUnits="userSpaceOnUse">
<stop stop-color="#8ABAFF"/>
<stop offset="1" stop-color="#1B77FF"/>
</linearGradient>
<linearGradient id="paint2_linear_959_18052" x1="146.517" y1="133" x2="146.517" y2="142.662" gradientUnits="userSpaceOnUse">
<stop stop-color="#C9DFFF"/>
<stop offset="0.6" stop-color="white" stop-opacity="0.502"/>
<stop offset="1" stop-color="white" stop-opacity="0"/>
</linearGradient>
</defs>
</svg>
