<svg width="32" height="32" viewBox="0 0 32 32" fill="none" xmlns="http://www.w3.org/2000/svg">
<rect width="32" height="32" rx="8" fill="white" fill-opacity="0.2"/>
<rect x="0.5" y="0.5" width="31" height="31" rx="7.5" stroke="white" stroke-opacity="0.4"/>
<g clip-path="url(#clip0_2163_55346)">
<path d="M25.6053 13.0686V16.6397C25.6053 21.7444 21.4669 25.8828 16.3622 25.8828C11.2575 25.8828 7.11914 21.7444 7.11914 16.6397V13.0686H13.0011V16.6397C13.0011 17.5021 13.3325 18.3314 13.9268 18.9562C14.5212 19.581 15.3329 19.9535 16.1941 19.9966L16.3622 20.0008C17.2245 20.0008 18.0539 19.6694 18.6787 19.0751C19.3035 18.4808 19.676 17.669 19.7191 16.8078L19.7233 16.6397V13.0686H25.6053ZM11.3205 5.71613C11.7662 5.71613 12.1937 5.89318 12.5089 6.20835C12.824 6.52351 13.0011 6.95097 13.0011 7.39668V11.8081H7.11914V7.39668C7.11914 6.95097 7.2962 6.52351 7.61136 6.20835C7.92653 5.89318 8.35399 5.71613 8.7997 5.71613H11.3205ZM23.9247 5.71613C24.3704 5.71613 24.7979 5.89318 25.113 6.20835C25.4282 6.52351 25.6053 6.95097 25.6053 7.39668V11.8081H19.7233V7.39668C19.7233 6.95097 19.9004 6.52351 20.2155 6.20835C20.5307 5.89318 20.9582 5.71613 21.4039 5.71613H23.9247Z" fill="white"/>
</g>
<defs>
<clipPath id="clip0_2163_55346">
<rect width="20" height="20" fill="white" transform="translate(6 6)"/>
</clipPath>
</defs>
</svg>
