<svg width="24" height="24" viewBox="0 0 24 24" fill="none" xmlns="http://www.w3.org/2000/svg">
<path d="M8.25 3H6C4.3455 3 3 4.3455 3 6V8.25C3 9.9045 4.3455 11.25 6 11.25H8.25C9.9045 11.25 11.25 9.9045 11.25 8.25V6C11.25 4.3455 9.9045 3 8.25 3ZM9.75 8.25C9.75 9.07725 9.07725 9.75 8.25 9.75H6C5.17275 9.75 4.5 9.07725 4.5 8.25V6C4.5 5.17275 5.17275 4.5 6 4.5H8.25C9.07725 4.5 9.75 5.17275 9.75 6V8.25ZM8.25 6.75V7.5C8.25 7.914 7.914 8.25 7.5 8.25H6.75C6.336 8.25 6 7.914 6 7.5V6.75C6 6.336 6.336 6 6.75 6H7.5C7.914 6 8.25 6.336 8.25 6.75ZM15.75 11.25H18C19.6545 11.25 21 9.9045 21 8.25V6C21 4.3455 19.6545 3 18 3H15.75C14.0955 3 12.75 4.3455 12.75 6V8.25C12.75 9.9045 14.0955 11.25 15.75 11.25ZM14.25 6C14.25 5.17275 14.9227 4.5 15.75 4.5H18C18.8273 4.5 19.5 5.17275 19.5 6V8.25C19.5 9.07725 18.8273 9.75 18 9.75H15.75C14.9227 9.75 14.25 9.07725 14.25 8.25V6ZM15.75 7.5V6.75C15.75 6.336 16.086 6 16.5 6H17.25C17.664 6 18 6.336 18 6.75V7.5C18 7.914 17.664 8.25 17.25 8.25H16.5C16.086 8.25 15.75 7.914 15.75 7.5ZM8.25 12.75H6C4.3455 12.75 3 14.0955 3 15.75V18C3 19.6545 4.3455 21 6 21H8.25C9.9045 21 11.25 19.6545 11.25 18V15.75C11.25 14.0955 9.9045 12.75 8.25 12.75ZM9.75 18C9.75 18.8273 9.07725 19.5 8.25 19.5H6C5.17275 19.5 4.5 18.8273 4.5 18V15.75C4.5 14.9227 5.17275 14.25 6 14.25H8.25C9.07725 14.25 9.75 14.9227 9.75 15.75V18ZM8.25 16.5V17.25C8.25 17.664 7.914 18 7.5 18H6.75C6.336 18 6 17.664 6 17.25V16.5C6 16.086 6.336 15.75 6.75 15.75H7.5C7.914 15.75 8.25 16.086 8.25 16.5ZM15.75 13.875V14.625C15.75 15.246 15.246 15.75 14.625 15.75H13.875C13.254 15.75 12.75 15.246 12.75 14.625V13.875C12.75 13.254 13.254 12.75 13.875 12.75H14.625C15.246 12.75 15.75 13.254 15.75 13.875ZM18 16.875C18 17.496 17.496 18 16.875 18C16.254 18 15.75 17.496 15.75 16.875C15.75 16.254 16.254 15.75 16.875 15.75C17.496 15.75 18 16.254 18 16.875ZM15.75 19.125V19.875C15.75 20.496 15.246 21 14.625 21H13.875C13.254 21 12.75 20.496 12.75 19.875V19.125C12.75 18.504 13.254 18 13.875 18H14.625C15.246 18 15.75 18.504 15.75 19.125ZM21 13.875V14.625C21 15.246 20.496 15.75 19.875 15.75H19.125C18.504 15.75 18 15.246 18 14.625V13.875C18 13.254 18.504 12.75 19.125 12.75H19.875C20.496 12.75 21 13.254 21 13.875Z" fill="#D1D1D6"/>
<path d="M8.25 3H6C4.3455 3 3 4.3455 3 6V8.25C3 9.9045 4.3455 11.25 6 11.25H8.25C9.9045 11.25 11.25 9.9045 11.25 8.25V6C11.25 4.3455 9.9045 3 8.25 3ZM9.75 8.25C9.75 9.07725 9.07725 9.75 8.25 9.75H6C5.17275 9.75 4.5 9.07725 4.5 8.25V6C4.5 5.17275 5.17275 4.5 6 4.5H8.25C9.07725 4.5 9.75 5.17275 9.75 6V8.25ZM8.25 6.75V7.5C8.25 7.914 7.914 8.25 7.5 8.25H6.75C6.336 8.25 6 7.914 6 7.5V6.75C6 6.336 6.336 6 6.75 6H7.5C7.914 6 8.25 6.336 8.25 6.75ZM15.75 11.25H18C19.6545 11.25 21 9.9045 21 8.25V6C21 4.3455 19.6545 3 18 3H15.75C14.0955 3 12.75 4.3455 12.75 6V8.25C12.75 9.9045 14.0955 11.25 15.75 11.25ZM14.25 6C14.25 5.17275 14.9227 4.5 15.75 4.5H18C18.8273 4.5 19.5 5.17275 19.5 6V8.25C19.5 9.07725 18.8273 9.75 18 9.75H15.75C14.9227 9.75 14.25 9.07725 14.25 8.25V6ZM15.75 7.5V6.75C15.75 6.336 16.086 6 16.5 6H17.25C17.664 6 18 6.336 18 6.75V7.5C18 7.914 17.664 8.25 17.25 8.25H16.5C16.086 8.25 15.75 7.914 15.75 7.5ZM8.25 12.75H6C4.3455 12.75 3 14.0955 3 15.75V18C3 19.6545 4.3455 21 6 21H8.25C9.9045 21 11.25 19.6545 11.25 18V15.75C11.25 14.0955 9.9045 12.75 8.25 12.75ZM9.75 18C9.75 18.8273 9.07725 19.5 8.25 19.5H6C5.17275 19.5 4.5 18.8273 4.5 18V15.75C4.5 14.9227 5.17275 14.25 6 14.25H8.25C9.07725 14.25 9.75 14.9227 9.75 15.75V18ZM8.25 16.5V17.25C8.25 17.664 7.914 18 7.5 18H6.75C6.336 18 6 17.664 6 17.25V16.5C6 16.086 6.336 15.75 6.75 15.75H7.5C7.914 15.75 8.25 16.086 8.25 16.5ZM15.75 13.875V14.625C15.75 15.246 15.246 15.75 14.625 15.75H13.875C13.254 15.75 12.75 15.246 12.75 14.625V13.875C12.75 13.254 13.254 12.75 13.875 12.75H14.625C15.246 12.75 15.75 13.254 15.75 13.875ZM18 16.875C18 17.496 17.496 18 16.875 18C16.254 18 15.75 17.496 15.75 16.875C15.75 16.254 16.254 15.75 16.875 15.75C17.496 15.75 18 16.254 18 16.875ZM15.75 19.125V19.875C15.75 20.496 15.246 21 14.625 21H13.875C13.254 21 12.75 20.496 12.75 19.875V19.125C12.75 18.504 13.254 18 13.875 18H14.625C15.246 18 15.75 18.504 15.75 19.125ZM21 13.875V14.625C21 15.246 20.496 15.75 19.875 15.75H19.125C18.504 15.75 18 15.246 18 14.625V13.875C18 13.254 18.504 12.75 19.125 12.75H19.875C20.496 12.75 21 13.254 21 13.875Z" fill="#A6B1C2"/>
</svg>
